<?xml version="1.0" encoding="UTF-8"?>
<svg xmlns="http://www.w3.org/2000/svg" xmlns:xlink="http://www.w3.org/1999/xlink" width="640" height="160" viewBox="0 0 640 160">
<defs>
<linearGradient id="linear-pattern-0" gradientUnits="userSpaceOnUse" x1="0" y1="0" x2="1" y2="1" gradientTransform="matrix(128, 0, 0, 128, 8, 16)">
<stop offset="0" stop-color="rgb(57.254902%, 58.823529%, 100%)" stop-opacity="1"/>
<stop offset="1" stop-color="rgb(97.647059%, 46.27451%, 46.27451%)" stop-opacity="1"/>
</linearGradient>
</defs>
<path fill-rule="nonzero" fill="url(#linear-pattern-0)" d="M 65.601562 16 L 78.398438 16 C 110.210938 16 136 41.789062 136 73.601562 L 136 86.398438 C 136 118.210938 110.210938 144 78.398438 144 L 65.601562 144 C 33.789062 144 8 118.210938 8 86.398438 L 8 73.601562 C 8 41.789062 33.789062 16 65.601562 16 Z M 65.601562 16 "/>
<path fill="none" stroke-width="2" stroke-linecap="round" stroke-linejoin="round" stroke="rgb(6.27451%, 6.27451%, 10.196078%)" stroke-opacity="1" stroke-miterlimit="4" d="M 19 7 L 19 4 C 19 3.447917 18.552083 3 18 3 L 5 3 C 3.895833 3 3 3.895833 3 5 C 3 6.104167 3.895833 7 5 7 L 20 7 C 20.552083 7 21 7.447917 21 8 L 21 12 L 18 12 C 16.895833 12 16 12.895833 16 14 C 16 15.104167 16.895833 16 18 16 L 21 16 C 21.552083 16 22 15.552083 22 15 L 22 13 C 22 12.447917 21.552083 12 21 12 " transform="matrix(3, 0, 0, 3, 36, 44)"/>
<path fill="none" stroke-width="2" stroke-linecap="round" stroke-linejoin="round" stroke="rgb(6.27451%, 6.27451%, 10.196078%)" stroke-opacity="1" stroke-miterlimit="4" d="M 3 5 L 3 19 C 3 20.104167 3.895833 21 5 21 L 20 21 C 20.552083 21 21 20.552083 21 20 L 21 16 " transform="matrix(3, 0, 0, 3, 36, 44)"/>
<path fill-rule="nonzero" fill="rgb(93.333333%, 93.333333%, 96.078431%)" fill-opacity="1" d="M 193.53125 108.828125 C 189.0625 108.828125 185.171875 108.136719 181.859375 106.765625 C 178.546875 105.390625 175.960938 103.355469 174.109375 100.65625 C 172.265625 97.949219 171.289062 94.621094 171.1875 90.671875 L 182.328125 90.671875 C 182.472656 92.546875 183.03125 94.121094 184 95.390625 C 184.976562 96.652344 186.28125 97.59375 187.90625 98.21875 C 189.53125 98.84375 191.367188 99.15625 193.421875 99.15625 C 195.472656 99.15625 197.253906 98.867188 198.765625 98.28125 C 200.273438 97.6875 201.457031 96.855469 202.3125 95.78125 C 203.164062 94.699219 203.59375 93.449219 203.59375 92.03125 C 203.59375 90.75 203.207031 89.683594 202.4375 88.828125 C 201.675781 87.964844 200.582031 87.21875 199.15625 86.59375 C 197.738281 85.96875 196.003906 85.417969 193.953125 84.9375 L 187.796875 83.40625 C 183.078125 82.25 179.378906 80.445312 176.703125 77.984375 C 174.023438 75.515625 172.6875 72.261719 172.6875 68.21875 C 172.6875 64.84375 173.59375 61.898438 175.40625 59.375 C 177.21875 56.84375 179.703125 54.882812 182.859375 53.484375 C 186.023438 52.078125 189.632812 51.375 193.6875 51.375 C 197.8125 51.375 201.410156 52.085938 204.484375 53.5 C 207.554688 54.90625 209.953125 56.871094 211.671875 59.390625 C 213.398438 61.902344 214.289062 64.792969 214.34375 68.0625 L 203.28125 68.0625 C 203.082031 65.8125 202.125 64.078125 200.40625 62.859375 C 198.695312 61.632812 196.421875 61.015625 193.578125 61.015625 C 191.648438 61.015625 190 61.292969 188.625 61.84375 C 187.25 62.398438 186.203125 63.164062 185.484375 64.140625 C 184.773438 65.109375 184.421875 66.21875 184.421875 67.46875 C 184.421875 68.84375 184.832031 69.992188 185.65625 70.90625 C 186.488281 71.8125 187.59375 72.546875 188.96875 73.109375 C 190.34375 73.671875 191.800781 74.140625 193.34375 74.515625 L 198.40625 75.75 C 200.757812 76.273438 202.945312 76.984375 204.96875 77.890625 C 207 78.789062 208.773438 79.890625 210.296875 81.203125 C 211.816406 82.515625 212.992188 84.074219 213.828125 85.875 C 214.671875 87.679688 215.09375 89.75 215.09375 92.09375 C 215.09375 95.46875 214.242188 98.417969 212.546875 100.9375 C 210.847656 103.449219 208.382812 105.390625 205.15625 106.765625 C 201.9375 108.136719 198.0625 108.828125 193.53125 108.828125 Z M 235.601562 108.53125 C 232.703125 108.53125 230.167969 107.902344 227.992188 106.640625 C 225.8125 105.371094 224.132812 103.558594 222.945312 101.203125 C 221.757812 98.839844 221.164062 96.015625 221.164062 92.734375 L 221.164062 66.078125 L 232.414062 66.078125 L 232.414062 90.78125 C 232.414062 93.386719 233.085938 95.429688 234.429688 96.90625 C 235.78125 98.375 237.636719 99.109375 239.992188 99.109375 C 241.59375 99.109375 243.007812 98.765625 244.226562 98.078125 C 245.453125 97.390625 246.414062 96.390625 247.101562 95.078125 C 247.789062 93.765625 248.132812 92.1875 248.132812 90.34375 L 248.132812 66.078125 L 259.414062 66.078125 L 259.414062 108 L 248.773438 108 L 248.617188 97.53125 L 249.257812 97.53125 C 248.152344 101.0625 246.46875 103.78125 244.210938 105.6875 C 241.949219 107.585938 239.078125 108.53125 235.601562 108.53125 Z M 290.542969 108.71875 C 288.261719 108.71875 286.332031 108.332031 284.761719 107.5625 C 283.1875 106.78125 281.90625 105.824219 280.917969 104.6875 C 279.925781 103.542969 279.171875 102.40625 278.652344 101.28125 L 278.121094 101.28125 L 278.121094 108 L 267.058594 108 L 267.058594 52.125 L 278.308594 52.125 L 278.308594 73.125 L 278.652344 73.125 C 279.171875 72.023438 279.910156 70.886719 280.871094 69.71875 C 281.839844 68.542969 283.109375 67.554688 284.683594 66.75 C 286.253906 65.949219 288.230469 65.546875 290.605469 65.546875 C 293.707031 65.546875 296.546875 66.351562 299.121094 67.953125 C 301.691406 69.546875 303.746094 71.949219 305.277344 75.15625 C 306.816406 78.355469 307.589844 82.339844 307.589844 87.109375 C 307.589844 91.765625 306.839844 95.699219 305.339844 98.90625 C 303.839844 102.117188 301.800781 104.554688 299.230469 106.21875 C 296.65625 107.886719 293.761719 108.71875 290.542969 108.71875 Z M 287.089844 99.671875 C 289.035156 99.671875 290.675781 99.136719 292.011719 98.0625 C 293.355469 96.992188 294.371094 95.507812 295.058594 93.609375 C 295.746094 91.703125 296.089844 89.527344 296.089844 87.078125 C 296.089844 84.632812 295.746094 82.46875 295.058594 80.59375 C 294.371094 78.71875 293.359375 77.246094 292.027344 76.171875 C 290.703125 75.089844 289.058594 74.546875 287.089844 74.546875 C 285.160156 74.546875 283.519531 75.070312 282.167969 76.109375 C 280.824219 77.140625 279.796875 78.589844 279.089844 80.453125 C 278.390625 82.320312 278.042969 84.527344 278.042969 87.078125 C 278.042969 89.601562 278.394531 91.808594 279.105469 93.703125 C 279.824219 95.589844 280.855469 97.058594 282.199219 98.109375 C 283.550781 99.152344 285.183594 99.671875 287.089844 99.671875 Z M 305.566406 61.609375 L 305.566406 52.125 L 351.207031 52.125 L 351.207031 61.609375 L 334.144531 61.609375 L 334.144531 108 L 322.660156 108 L 322.660156 61.609375 Z M 352.546875 108 L 352.546875 66.078125 L 363.421875 66.078125 L 363.421875 73.390625 L 363.875 73.390625 C 364.644531 70.789062 365.9375 68.824219 367.75 67.5 C 369.5625 66.179688 371.644531 65.515625 374 65.515625 C 374.570312 65.515625 375.195312 65.546875 375.875 65.609375 C 376.550781 65.671875 377.140625 65.765625 377.640625 65.890625 L 377.640625 75.9375 C 377.140625 75.761719 376.410156 75.625 375.453125 75.53125 C 374.503906 75.429688 373.609375 75.375 372.765625 75.375 C 371.066406 75.375 369.53125 75.746094 368.15625 76.484375 C 366.78125 77.226562 365.707031 78.25 364.9375 79.5625 C 364.175781 80.875 363.796875 82.40625 363.796875 84.15625 L 363.796875 108 Z M 392.554688 108.828125 C 389.90625 108.828125 387.527344 108.355469 385.414062 107.421875 C 383.296875 106.484375 381.632812 105.085938 380.414062 103.21875 C 379.203125 101.355469 378.601562 99.039062 378.601562 96.265625 C 378.601562 93.945312 379.03125 91.996094 379.898438 90.421875 C 380.761719 88.839844 381.933594 87.574219 383.414062 86.625 C 384.902344 85.679688 386.589844 84.953125 388.476562 84.453125 C 390.371094 83.953125 392.355469 83.605469 394.429688 83.40625 C 396.855469 83.15625 398.808594 82.929688 400.289062 82.71875 C 401.777344 82.5 402.867188 82.164062 403.554688 81.703125 C 404.242188 81.234375 404.585938 80.554688 404.585938 79.65625 L 404.585938 79.46875 C 404.585938 78.261719 404.335938 77.246094 403.835938 76.421875 C 403.335938 75.601562 402.589844 74.96875 401.601562 74.53125 C 400.621094 74.09375 399.429688 73.875 398.023438 73.875 C 396.574219 73.875 395.3125 74.09375 394.242188 74.53125 C 393.167969 74.96875 392.292969 75.554688 391.617188 76.28125 C 390.9375 77 390.4375 77.8125 390.117188 78.71875 L 379.804688 77.03125 C 380.53125 74.574219 381.730469 72.496094 383.398438 70.796875 C 385.074219 69.101562 387.15625 67.804688 389.648438 66.90625 C 392.136719 66 394.945312 65.546875 398.070312 65.546875 C 400.320312 65.546875 402.507812 65.820312 404.632812 66.359375 C 406.757812 66.902344 408.664062 67.734375 410.351562 68.859375 C 412.039062 69.976562 413.371094 71.4375 414.351562 73.25 C 415.339844 75.0625 415.835938 77.234375 415.835938 79.765625 L 415.835938 108 L 405.195312 108 L 405.195312 102.1875 L 404.820312 102.1875 C 404.140625 103.492188 403.242188 104.636719 402.117188 105.625 C 400.992188 106.605469 399.632812 107.386719 398.039062 107.96875 C 396.453125 108.539062 394.625 108.828125 392.554688 108.828125 Z M 395.742188 100.90625 C 397.511719 100.90625 399.0625 100.558594 400.398438 99.859375 C 401.742188 99.164062 402.789062 98.214844 403.539062 97.015625 C 404.289062 95.820312 404.664062 94.480469 404.664062 93 L 404.664062 88.46875 C 404.339844 88.71875 403.839844 88.945312 403.164062 89.140625 C 402.484375 89.339844 401.734375 89.515625 400.914062 89.671875 C 400.089844 89.820312 399.277344 89.953125 398.476562 90.078125 C 397.671875 90.203125 396.960938 90.304688 396.335938 90.375 C 394.960938 90.574219 393.746094 90.902344 392.695312 91.359375 C 391.652344 91.808594 390.839844 92.402344 390.257812 93.140625 C 389.683594 93.871094 389.398438 94.8125 389.398438 95.96875 C 389.398438 97.042969 389.671875 97.949219 390.226562 98.6875 C 390.777344 99.417969 391.527344 99.96875 392.476562 100.34375 C 393.421875 100.71875 394.511719 100.90625 395.742188 100.90625 Z M 442.269531 108.828125 C 438.050781 108.828125 434.410156 107.921875 431.347656 106.109375 C 428.285156 104.296875 425.917969 101.773438 424.253906 98.53125 C 422.585938 95.292969 421.753906 91.523438 421.753906 87.21875 C 421.753906 82.875 422.585938 79.085938 424.253906 75.84375 C 425.917969 72.605469 428.285156 70.078125 431.347656 68.265625 C 434.410156 66.453125 438.050781 65.546875 442.269531 65.546875 C 444.746094 65.546875 447.035156 65.875 449.128906 66.53125 C 451.230469 67.179688 453.097656 68.101562 454.722656 69.296875 C 456.347656 70.496094 457.679688 71.960938 458.722656 73.6875 C 459.773438 75.417969 460.503906 77.355469 460.910156 79.5 L 450.441406 81.453125 C 450.222656 80.351562 449.871094 79.371094 449.394531 78.515625 C 448.925781 77.652344 448.351562 76.914062 447.675781 76.296875 C 446.996094 75.683594 446.214844 75.214844 445.332031 74.890625 C 444.445312 74.570312 443.460938 74.40625 442.378906 74.40625 C 440.378906 74.40625 438.695312 74.945312 437.332031 76.015625 C 435.976562 77.089844 434.957031 78.589844 434.269531 80.515625 C 433.582031 82.445312 433.238281 84.667969 433.238281 87.1875 C 433.238281 89.667969 433.582031 91.871094 434.269531 93.796875 C 434.957031 95.714844 435.976562 97.226562 437.332031 98.328125 C 438.695312 99.421875 440.378906 99.96875 442.378906 99.96875 C 443.460938 99.96875 444.449219 99.804688 445.347656 99.46875 C 446.242188 99.136719 447.039062 98.652344 447.738281 98.015625 C 448.445312 97.371094 449.035156 96.601562 449.503906 95.703125 C 449.980469 94.796875 450.320312 93.78125 450.519531 92.65625 L 460.988281 94.578125 C 460.582031 96.796875 459.851562 98.777344 458.800781 100.515625 C 457.757812 102.257812 456.425781 103.75 454.800781 105 C 453.175781 106.25 451.304688 107.203125 449.191406 107.859375 C 447.074219 108.503906 444.769531 108.828125 442.269531 108.828125 Z M 476.992188 95.734375 L 476.992188 82.203125 L 478.679688 82.203125 L 492.398438 66.078125 L 505.414062 66.078125 L 487.304688 87.109375 L 484.648438 87.109375 Z M 466.789062 108 L 466.789062 52.125 L 478.039062 52.125 L 478.039062 108 Z M 492.960938 108 L 480.367188 89.625 L 487.898438 81.640625 L 506.195312 108 Z M 526.632812 108.828125 C 522.359375 108.828125 518.671875 107.953125 515.570312 106.203125 C 512.476562 104.453125 510.09375 101.96875 508.429688 98.75 C 506.761719 95.523438 505.929688 91.695312 505.929688 87.265625 C 505.929688 82.945312 506.75 79.15625 508.398438 75.90625 C 510.054688 72.65625 512.390625 70.121094 515.414062 68.296875 C 518.445312 66.464844 521.996094 65.546875 526.070312 65.546875 C 528.820312 65.546875 531.382812 65.984375 533.757812 66.859375 C 536.132812 67.734375 538.21875 69.058594 540.023438 70.828125 C 541.824219 72.589844 543.230469 74.792969 544.242188 77.4375 C 545.25 80.085938 545.757812 83.210938 545.757812 86.8125 L 545.757812 89.96875 L 510.554688 89.96875 L 510.554688 82.90625 L 540.242188 82.90625 L 534.992188 84.78125 C 534.992188 82.617188 534.65625 80.726562 533.992188 79.109375 C 533.335938 77.496094 532.351562 76.246094 531.039062 75.359375 C 529.726562 74.476562 528.105469 74.03125 526.179688 74.03125 C 524.230469 74.03125 522.574219 74.480469 521.210938 75.375 C 519.855469 76.273438 518.824219 77.492188 518.117188 79.03125 C 517.417969 80.574219 517.070312 82.328125 517.070312 84.296875 L 517.070312 89.28125 C 517.070312 91.710938 517.476562 93.75 518.289062 95.40625 C 519.101562 97.054688 520.234375 98.289062 521.695312 99.109375 C 523.164062 99.933594 524.871094 100.34375 526.820312 100.34375 C 528.140625 100.34375 529.339844 100.15625 530.414062 99.78125 C 531.496094 99.40625 532.417969 98.855469 533.179688 98.125 C 533.9375 97.386719 534.523438 96.480469 534.929688 95.40625 L 545.117188 97.3125 C 544.4375 99.617188 543.261719 101.636719 541.585938 103.375 C 539.917969 105.105469 537.828125 106.449219 535.320312 107.40625 C 532.808594 108.351562 529.914062 108.828125 526.632812 108.828125 Z M 566.824219 108.71875 C 563.625 108.71875 560.730469 107.886719 558.136719 106.21875 C 555.550781 104.554688 553.511719 102.117188 552.011719 98.90625 C 550.511719 95.699219 549.761719 91.765625 549.761719 87.109375 C 549.761719 82.339844 550.535156 78.355469 552.089844 75.15625 C 553.640625 71.949219 555.703125 69.546875 558.277344 67.953125 C 560.847656 66.351562 563.6875 65.546875 566.792969 65.546875 C 569.167969 65.546875 571.140625 65.949219 572.714844 66.75 C 574.285156 67.554688 575.5625 68.542969 576.542969 69.71875 C 577.519531 70.886719 578.246094 72.023438 578.714844 73.125 L 579.089844 73.125 L 579.089844 52.125 L 590.339844 52.125 L 590.339844 108 L 579.277344 108 L 579.277344 101.28125 L 578.714844 101.28125 C 578.214844 102.40625 577.46875 103.542969 576.480469 104.6875 C 575.5 105.824219 574.21875 106.78125 572.636719 107.5625 C 571.0625 108.332031 569.125 108.71875 566.824219 108.71875 Z M 570.324219 99.671875 C 572.21875 99.671875 573.839844 99.152344 575.183594 98.109375 C 576.535156 97.058594 577.5625 95.589844 578.261719 93.703125 C 578.96875 91.808594 579.324219 89.601562 579.324219 87.078125 C 579.324219 84.527344 578.980469 82.320312 578.292969 80.453125 C 577.605469 78.589844 576.582031 77.140625 575.230469 76.109375 C 573.875 75.070312 572.238281 74.546875 570.324219 74.546875 C 568.34375 74.546875 566.683594 75.089844 565.339844 76.171875 C 564.003906 77.246094 563 78.71875 562.324219 80.59375 C 561.65625 82.46875 561.324219 84.632812 561.324219 87.078125 C 561.324219 89.527344 561.667969 91.703125 562.355469 93.609375 C 563.042969 95.507812 564.050781 96.992188 565.386719 98.0625 C 566.71875 99.136719 568.363281 99.671875 570.324219 99.671875 Z M 168 33.601562 "/>
</svg>
